<svg width="120" height="120" viewBox="0 0 120 120" fill="none" xmlns="http://www.w3.org/2000/svg">
<path d="M0 51.936C0 9.1667 9.1667 0 51.936 0H68.064C110.833 0 120 9.1667 120 51.936V68.064C120 110.833 110.833 120 68.064 120H51.936C9.1667 120 0 110.833 0 68.064V51.936Z" fill="#161618"/>
<path d="M38.6563 79.1526C47.8689 68.0459 47.8689 51.954 38.6563 40.8473L28 28L40.8473 38.6563C51.954 47.8688 68.046 47.8688 79.1527 38.6563L92 28L81.3437 40.8473C72.1311 51.954 72.1311 68.0459 81.3437 79.1526L92 92L79.1527 81.3437C68.046 72.1311 51.954 72.1311 40.8473 81.3437L28 92L38.6563 79.1526Z" fill="#F7F6F2"/>
<circle cx="60" cy="60" r="25.8736" stroke="#F7F6F2"/>
<circle cx="101.4" cy="18.4" r="6.4" fill="#CE1F2C"/>
</svg>
