<svg width="24" height="24" viewBox="0 0 24 24" fill="none" xmlns="http://www.w3.org/2000/svg">
<path d="M18.9301 14C20.4052 12.54 21.9001 10.79 21.9001 8.5C21.9001 7.04131 21.3264 5.64236 20.3053 4.61091C19.2842 3.57946 17.8992 3 16.4551 3C14.7127 3 13.4851 3.21429 12.0001 4.71429C10.5151 3.21429 9.2875 3 7.5451 3C6.10099 3 4.71604 3.57946 3.6949 4.61091C2.67377 5.64236 2.1001 7.04131 2.1001 8.5C2.1001 10.8 3.5851 12.55 5.0701 14L12.0001 21L18.9301 14Z" />
<path d="M12 4.7998L8.43617 8.3638C8.43617 8.3638 8.35757 8.43237 7.95007 8.8498C7.54258 9.26723 7.5 9.2998 7.5 9.7498C7.5 10.1998 7.55095 10.2517 7.95 10.6498C8.43623 11.1348 8.21714 10.9183 8.4 11.0998C9.06661 11.7616 10.2 11.9998 11.1362 11.1988L12.9992 9.4888C13.4661 9.06508 14.0741 8.83036 14.7047 8.83036C15.3352 8.83036 15.9432 9.06508 16.4102 9.4888L19.0742 11.8828M16.5002 14.6998L14.7002 12.8998M13.8002 17.3998L12.0002 15.5998" />
</svg>
