<svg width="132" height="48" viewBox="0 0 132 48" fill="none" xmlns="http://www.w3.org/2000/svg">
<path d="M6.37713 17.9785C8.13085 17.9785 9.57234 18.3372 10.7016 19.0547C11.8309 19.7588 12.4088 20.8084 12.4354 22.2034V22.4425H8.3102V22.3628C8.3102 21.9642 8.16406 21.6321 7.87177 21.3664C7.57949 21.1007 7.13442 20.9678 6.53656 20.9678C5.95199 20.9678 5.50028 21.0542 5.18142 21.2269C4.87585 21.3996 4.72306 21.6122 4.72306 21.8646C4.72306 22.2233 4.93564 22.489 5.36078 22.6617C5.78592 22.8344 6.47013 23.0138 7.41342 23.1998C8.51613 23.4257 9.41956 23.6648 10.1237 23.9172C10.8411 24.1564 11.4656 24.5549 11.997 25.1129C12.5284 25.6709 12.8008 26.4282 12.8141 27.3848C12.8141 29.0056 12.2627 30.208 11.16 30.9919C10.0706 31.7757 8.60913 32.1676 6.77571 32.1676C4.63671 32.1676 2.96935 31.8089 1.77364 31.0915C0.591213 30.3741 0 29.1053 0 27.2851H4.16507C4.16507 27.976 4.34442 28.441 4.70314 28.6801C5.06185 28.906 5.61985 29.0189 6.37713 29.0189C6.93513 29.0189 7.39349 28.9591 7.7522 28.8396C8.1242 28.72 8.3102 28.4742 8.3102 28.1022C8.3102 27.7701 8.10427 27.5243 7.69242 27.3649C7.29385 27.1921 6.63621 27.0128 5.71949 26.8268C4.60349 26.5876 3.68014 26.3419 2.94942 26.0894C2.21871 25.8237 1.581 25.3919 1.03628 24.7941C0.491571 24.1962 0.219214 23.3858 0.219214 22.3628C0.219214 20.8615 0.797142 19.7588 1.953 19.0547C3.12214 18.3372 4.59685 17.9785 6.37713 17.9785Z" fill="black"/>
<path d="M20.6197 17.9785C22.9845 17.9785 24.8113 18.583 26.1 19.792C27.3887 21.001 28.0331 22.7614 28.0331 25.0731C28.0331 27.3848 27.3887 29.1451 26.1 30.3541C24.8113 31.5631 22.9845 32.1676 20.6197 32.1676C18.2548 32.1676 16.428 31.5698 15.1393 30.3741C13.8639 29.1651 13.2262 27.3981 13.2262 25.0731C13.2262 22.7481 13.8639 20.9877 15.1393 19.792C16.428 18.583 18.2548 17.9785 20.6197 17.9785ZM20.6197 21.2667C19.6764 21.2667 18.9589 21.5524 18.4674 22.1237C17.9758 22.6949 17.73 23.4655 17.73 24.4354V25.7108C17.73 26.6806 17.9758 27.4512 18.4674 28.0225C18.9589 28.5938 19.6764 28.8794 20.6197 28.8794C21.5629 28.8794 22.2804 28.5938 22.7719 28.0225C23.2768 27.4512 23.5292 26.6806 23.5292 25.7108V24.4354C23.5292 23.4655 23.2768 22.6949 22.7719 22.1237C22.2804 21.5524 21.5629 21.2667 20.6197 21.2667Z" fill="black"/>
<path d="M36.0246 17.9785C38.3894 17.9785 40.2162 18.583 41.5049 19.792C42.7936 21.001 43.438 22.7614 43.438 25.0731C43.438 27.3848 42.7936 29.1451 41.5049 30.3541C40.2162 31.5631 38.3894 32.1676 36.0246 32.1676C33.6597 32.1676 31.8329 31.5698 30.5442 30.3741C29.2688 29.1651 28.6311 27.3981 28.6311 25.0731C28.6311 22.7481 29.2688 20.9877 30.5442 19.792C31.8329 18.583 33.6597 17.9785 36.0246 17.9785ZM36.0246 21.2667C35.0813 21.2667 34.3639 21.5524 33.8723 22.1237C33.3807 22.6949 33.1349 23.4655 33.1349 24.4354V25.7108C33.1349 26.6806 33.3807 27.4512 33.8723 28.0225C34.3639 28.5938 35.0813 28.8794 36.0246 28.8794C36.9679 28.8794 37.6853 28.5938 38.1769 28.0225C38.6817 27.4512 38.9341 26.6806 38.9341 25.7108V24.4354C38.9341 23.4655 38.6817 22.6949 38.1769 22.1237C37.6853 21.5524 36.9679 21.2667 36.0246 21.2667Z" fill="black"/>
<path d="M54.4188 31.9285L48.6594 25.2724V31.9285H44.6139V18.2177H48.4601L54.2195 24.9734V18.2177H58.265V31.9285H54.4188Z" fill="black"/>
<path d="M72.3548 17.9785C73.6701 17.9785 74.8525 18.1778 75.9021 18.5764C76.9516 18.9749 77.782 19.5662 78.3931 20.35C79.0176 21.1206 79.3298 22.0639 79.3298 23.1799H75.1248C75.1248 22.6086 74.8724 22.1502 74.3676 21.8048C73.8627 21.4461 73.2516 21.2667 72.5341 21.2667C71.4979 21.2667 70.714 21.5457 70.1826 22.1037C69.6511 22.6484 69.3854 23.4257 69.3854 24.4354V25.7108C69.3854 26.7205 69.6511 27.5044 70.1826 28.0624C70.714 28.6071 71.4979 28.8794 72.5341 28.8794C73.2516 28.8794 73.8627 28.7134 74.3676 28.3812C74.8724 28.0358 75.1248 27.5974 75.1248 27.0659H72.016V24.2759H79.3298V31.9285H77.0579L76.6195 30.5734C75.3706 31.6362 73.7365 32.1676 71.7171 32.1676C69.4452 32.1676 67.738 31.5764 66.5954 30.394C65.4529 29.1983 64.8816 27.4246 64.8816 25.0731C64.8816 22.7481 65.5259 20.9877 66.8146 19.792C68.1166 18.583 69.9633 17.9785 72.3548 17.9785Z" fill="black"/>
<path d="M87.68 17.9785C90.0448 17.9785 91.8716 18.583 93.1603 19.792C94.449 21.001 95.0934 22.7614 95.0934 25.0731C95.0934 27.3848 94.449 29.1451 93.1603 30.3541C91.8716 31.5631 90.0448 32.1676 87.68 32.1676C85.3151 32.1676 83.4883 31.5698 82.1996 30.3741C80.9242 29.1651 80.2865 27.3981 80.2865 25.0731C80.2865 22.7481 80.9242 20.9877 82.1996 19.792C83.4883 18.583 85.3151 17.9785 87.68 17.9785ZM87.68 21.2667C86.7367 21.2667 86.0193 21.5524 85.5277 22.1237C85.0361 22.6949 84.7903 23.4655 84.7903 24.4354V25.7108C84.7903 26.6806 85.0361 27.4512 85.5277 28.0225C86.0193 28.5938 86.7367 28.8794 87.68 28.8794C88.6233 28.8794 89.3407 28.5938 89.8323 28.0225C90.3371 27.4512 90.5896 26.6806 90.5896 25.7108V24.4354C90.5896 23.4655 90.3371 22.6949 89.8323 22.1237C89.3407 21.5524 88.6233 21.2667 87.68 21.2667Z" fill="black"/>
<path d="M106.074 31.9285L100.315 25.2724V31.9285H96.2693V18.2177H100.116L105.875 24.9734V18.2177H109.92V31.9285H106.074Z" fill="black"/>
<path d="M111.674 18.2177H123.532V21.5059H116.078V23.3991H122.456V26.5478H116.078V28.6403H123.671V31.9285H111.674V18.2177Z" fill="black"/>
<ellipse cx="129.01" cy="14.9893" rx="2.98928" ry="2.98928" fill="#CD0000"/>
</svg>
